<svg width="512" height="512">
	<path d="M 113.70647,512 55.574467,391.792 c -43.694,-90.351 -18.098,-196.268 55.842003,-257.579 46.027,-38.166 89.94,-78.812 130.239,-122.984 L 251.89947,0 l 23.821,31.473 c 29.393,38.834 51.822,80.128 65.073,121.97 z" fill="#1f9f5f"/>
	<path d="m 468.76547,149.938 -7.743,-38.704 c -38.269,90.207 -136.426,138.139 -192.689,200.383 C 169.94147,420.469 113.70647,512 113.70647,512 h 58.256 c 258.928,0 334.274,-174.759 296.803,-362.062 z" fill="#3fbf3f"/>
	<path d="m 461.02147,111.234 -14.112,5.649 c -34.771,13.919 -70.217,25.975 -106.117,36.56 v 10e-4 c -21.412,6.314 -42.985,12.104 -64.674,17.454 -93.258,23.005 -162.413,107.214 -162.413,207.575 V 512 c 10e-4,0 242.122,-152.806 347.316,-400.766 z" fill="#5fdf1f"/>
</svg>
